<svg class="icon" style="width: 1em; height: 1em;vertical-align: middle;fill: currentColor;overflow: hidden;" viewBox="0 0 1024 1024" version="1.1" xmlns="http://www.w3.org/2000/svg" p-id="9410"><path d="M716.22 308.693v-68.464c0-113.261-91.815-205.077-205.077-205.077v0c-113.261 0-205.077 91.815-205.077 205.077v68.463h-135.862v682.931h682.716v-682.93h-136.7zM375.281 513.182h-68.343v-136.383h68.343v136.383zM647.454 308.693h-272.623v-68.464c0-36.41 14.179-70.64 39.924-96.386 25.746-25.746 59.978-39.924 96.387-39.924 36.41 0 70.64 14.179 96.386 39.924 25.746 25.746 39.924 59.977 39.924 96.386v68.464zM716.489 513.104h-68.37v-136.304h68.37v136.304z" p-id="9411"></path></svg>