<svg class="icon" style="width: 1em; height: 1em;vertical-align: middle;fill: currentColor;overflow: hidden;" viewBox="0 0 1024 1024" version="1.1" xmlns="http://www.w3.org/2000/svg" p-id="3740"><path d="M999.936 509.44l-449.024-389.12c-9.216-11.264-23.552-18.432-38.912-18.432s-29.696 7.168-38.912 18.432l-449.024 389.12C9.728 518.656 0 534.528 0 552.96c0 26.624 19.968 48.128 46.08 50.688v0.512h81.92v317.44c0 28.16 23.04 51.2 51.2 51.2h204.8c28.16 0 51.2-23.04 51.2-51.2v-209.92c0-28.16 23.04-51.2 51.2-51.2h51.2c28.16 0 51.2 23.04 51.2 51.2v209.92c0 28.16 23.04 51.2 51.2 51.2h204.8c28.16 0 51.2-23.04 51.2-51.2v-317.44h76.8c28.16 0 51.2-23.04 51.2-51.2 0-18.432-9.728-34.304-24.064-43.52z" fill="" p-id="3741"></path></svg>