<svg class="icon" style="width: 1em; height: 1em;vertical-align: middle;fill: currentColor;overflow: hidden;" viewBox="0 0 1024 1024" version="1.1" xmlns="http://www.w3.org/2000/svg" p-id="5260"><path d="M907.264 278.9888a30.72 30.72 0 0 0-24.064-11.6224H290.9184l-22.6816-117.0432a30.72 30.72 0 0 0-30.1568-24.8832H102.4a30.72 30.72 0 0 0 0 61.44h110.336L235.52 303.7184l57.3952 306.1248a31.488 31.488 0 0 0 3.84 10.24l15.36 77.9264a106.496 106.496 0 1 0 125.2864 57.1904h178.7904a106.1888 106.1888 0 1 0 96.5632-62.1568 103.9872 103.9872 0 0 0-12.032 0.7168H373.76L362.0864 634.88h449.4336a30.72 30.72 0 0 0 29.9008-23.7056l71.68-306.0736a30.72 30.72 0 0 0-5.8368-26.112zM341.1456 844.8a44.8512 44.8512 0 1 1 44.8512-44.8512 44.9024 44.9024 0 0 1-44.8512 44.8512z m416.6144-45.5168a44.8512 44.8512 0 1 1-52.6848-44.0832h7.8336a26.88 26.88 0 0 0 5.12-0.4608 44.9536 44.9536 0 0 1 39.7312 44.544z m29.3888-225.8432H350.208l-47.4112-244.6336h541.6448z" fill="#666666" p-id="5261"></path></svg>